<svg width="38" height="38" viewBox="0 0 38 38" fill="none" xmlns="http://www.w3.org/2000/svg">
<path d="M2.0004 5.02224C2.0004 3.96437 2.0004 3.43542 2.20627 3.03137C2.38737 2.67595 2.67634 2.38699 3.03175 2.20589C3.4358 2.00002 3.96475 2.00002 5.02262 2.00002H32.9782C34.0361 2.00002 34.565 2.00002 34.9691 2.20589C35.3246 2.38699 35.6134 2.67595 35.7945 3.03137C36.0004 3.43542 36.0004 3.96437 36.0004 5.02224V8.30373C36.0004 8.76573 36.0004 8.99672 35.9483 9.21412C35.902 9.40686 35.8257 9.5911 35.722 9.7601C35.6052 9.95073 35.4419 10.1141 35.1153 10.4408L23.6633 21.8927C23.3367 22.2192 23.1733 22.3826 23.0566 22.5732C22.9529 22.7423 22.8766 22.9264 22.8303 23.1193C22.7782 23.3367 22.7782 23.5677 22.7782 24.0296V28.4445L15.2226 36V24.0296C15.2226 23.5677 15.2226 23.3367 15.1704 23.1193C15.1242 22.9264 15.0478 22.7423 14.9443 22.5732C14.8275 22.3826 14.6641 22.2192 14.3374 21.8927L2.88559 10.4408C2.5589 10.1141 2.39555 9.95073 2.27874 9.7601C2.17518 9.5911 2.09886 9.40686 2.05259 9.21412C2.0004 8.99672 2.0004 8.76573 2.0004 8.30373V5.02224Z" stroke="#7C8292" stroke-width="4" stroke-linecap="round" stroke-linejoin="round"/>
</svg>
