<svg width="606" height="62" viewBox="0 0 606 62" fill="none" xmlns="http://www.w3.org/2000/svg">
<path d="M79.4682 2.07732V27.4667H90.6371V21.3383H92.3554L118.824 52.8561H136.007V2.07732H123.979V35.3462H120.542L92.3554 2.07732H79.4682Z" fill="#F4F5F7"/>
<path d="M310.249 19.0036H323.136V52.488H310.249V19.0036Z" fill="#F4F5F7"/>
<path d="M287.481 2.07732H345.474V13.4587H287.481V2.07732Z" fill="#F4F5F7"/>
<path d="M154.049 2.07732V27.4668H165.218V21.3383H166.936L193.405 52.8561H210.588V2.07732H198.559V35.3462H195.123L166.936 2.07732H154.049Z" fill="#F4F5F7"/>
<path d="M234.677 27.6007C234.677 30.9338 235.367 33.9494 236.746 36.6475C238.151 39.3457 240.074 41.4884 242.514 43.0755C244.954 44.6362 247.778 45.4166 250.987 45.4166C254.196 45.4166 257.021 44.6362 259.461 43.0755C261.927 41.4884 263.85 39.3457 265.229 36.6475C266.608 33.9494 267.298 30.9338 267.298 27.6007C267.298 24.2677 266.608 21.2653 265.229 18.5936C263.85 15.8954 261.927 13.7528 259.461 12.1656C257.021 10.5785 254.196 9.78489 250.987 9.78489C247.778 9.78489 244.954 10.5785 242.514 12.1656C240.074 13.7528 238.151 15.8954 236.746 18.5936C235.367 21.2653 234.677 24.2677 234.677 27.6007ZM224.334 27.6007C224.334 23.7915 224.997 20.2469 226.323 16.9668C227.675 13.6602 229.558 10.7769 231.972 8.31676C234.385 5.85667 237.21 3.93884 240.445 2.56331C243.707 1.18777 247.221 0.5 250.987 0.5C254.806 0.5 258.334 1.18777 261.569 2.56331C264.805 3.93884 267.616 5.85667 270.003 8.31676C272.416 10.7769 274.286 13.6602 275.612 16.9668C276.938 20.2469 277.601 23.7915 277.601 27.6007C277.601 31.4364 276.951 35.0075 275.652 38.3141C274.352 41.5942 272.509 44.4775 270.122 46.964C267.735 49.4241 264.924 51.342 261.689 52.7175C258.453 54.093 254.886 54.7808 250.987 54.7808C247.036 54.7808 243.429 54.093 240.167 52.7175C236.931 51.342 234.12 49.4241 231.733 46.964C229.373 44.4775 227.543 41.5942 226.243 38.3141C224.97 35.0075 224.334 31.4364 224.334 27.6007Z" fill="#F4F5F7"/>
<path d="M0.5 50.4381L34.5025 2.07732H39.36L73.3624 50.4381V52.8561H61.2187L36.6862 17.3711L12.6437 52.8561H0.5V50.4381Z" fill="#F4F5F7"/>
<path d="M0.5 50.4381L0.0909807 50.1505C0.0317731 50.2347 0 50.3351 0 50.4381H0.5ZM34.5025 2.07732V1.57732C34.3397 1.57732 34.1871 1.65657 34.0934 1.78974L34.5025 2.07732ZM39.36 2.07732L39.769 1.78974C39.6754 1.65657 39.5228 1.57732 39.36 1.57732V2.07732ZM73.3624 50.4381H73.8624C73.8624 50.3351 73.8307 50.2347 73.7715 50.1505L73.3624 50.4381ZM73.3624 52.8561V53.3561C73.6386 53.3561 73.8624 53.1322 73.8624 52.8561H73.3624ZM61.2187 52.8561L60.8074 53.1404C60.9008 53.2755 61.0545 53.3561 61.2187 53.3561V52.8561ZM36.6862 17.3711L37.0974 17.0867C37.0036 16.951 36.8488 16.8703 36.6838 16.8711C36.5188 16.8718 36.3648 16.954 36.2722 17.0906L36.6862 17.3711ZM12.6437 52.8561V53.3561C12.8096 53.3561 12.9647 53.2739 13.0577 53.1366L12.6437 52.8561ZM0.5 52.8561H0C0 53.1322 0.223858 53.3561 0.5 53.3561L0.5 52.8561ZM79.4682 2.07732V1.57732C79.192 1.57732 78.9682 1.80118 78.9682 2.07732H79.4682ZM79.4682 27.4667H78.9682C78.9682 27.7429 79.192 27.9667 79.4682 27.9667V27.4667ZM90.6371 27.4667V27.9667C90.9132 27.9667 91.1371 27.7429 91.1371 27.4667H90.6371ZM90.6371 21.3383V20.8383C90.361 20.8383 90.1371 21.0621 90.1371 21.3383H90.6371ZM118.824 52.8561L118.441 53.1777C118.536 53.2908 118.676 53.3561 118.824 53.3561V52.8561ZM136.007 52.8561V53.3561C136.283 53.3561 136.507 53.1322 136.507 52.8561H136.007ZM136.007 2.07732H136.507C136.507 1.80118 136.283 1.57732 136.007 1.57732V2.07732ZM123.979 2.07732V1.57732C123.703 1.57732 123.479 1.80118 123.479 2.07732H123.979ZM123.979 35.3462V35.8462C124.255 35.8462 124.479 35.6224 124.479 35.3462H123.979ZM92.3554 2.07732L92.7369 1.75411C92.6419 1.64198 92.5024 1.57732 92.3554 1.57732V2.07732ZM92.3554 21.3383L92.7383 21.0167C92.6433 20.9036 92.5031 20.8383 92.3554 20.8383V21.3383ZM120.542 35.3462L120.161 35.6694C120.256 35.7816 120.395 35.8462 120.542 35.8462V35.3462ZM287.481 2.07732V1.57732C287.205 1.57732 286.981 1.80118 286.981 2.07732H287.481ZM345.474 2.07732H345.974C345.974 1.80118 345.75 1.57732 345.474 1.57732V2.07732ZM345.474 13.4587V13.9587C345.75 13.9587 345.974 13.7348 345.974 13.4587H345.474ZM287.481 13.4587H286.981C286.981 13.7348 287.205 13.9587 287.481 13.9587V13.4587ZM310.249 19.0036V18.5036C309.973 18.5036 309.749 18.7274 309.749 19.0036H310.249ZM323.136 19.0036H323.636C323.636 18.7274 323.412 18.5036 323.136 18.5036V19.0036ZM323.136 52.488V52.988C323.412 52.988 323.636 52.7641 323.636 52.488H323.136ZM310.249 52.488H309.749C309.749 52.7641 309.973 52.988 310.249 52.988V52.488ZM154.049 2.07732V1.57732C153.773 1.57732 153.549 1.80118 153.549 2.07732H154.049ZM154.049 27.4668H153.549C153.549 27.7429 153.773 27.9668 154.049 27.9668V27.4668ZM165.218 27.4668V27.9668C165.494 27.9668 165.718 27.7429 165.718 27.4668H165.218ZM165.218 21.3383V20.8383C164.942 20.8383 164.718 21.0621 164.718 21.3383H165.218ZM193.405 52.8561L193.022 53.1777C193.117 53.2908 193.257 53.3561 193.405 53.3561V52.8561ZM210.588 52.8561V53.3561C210.864 53.3561 211.088 53.1322 211.088 52.8561H210.588ZM210.588 2.07732H211.088C211.088 1.80118 210.864 1.57732 210.588 1.57732V2.07732ZM198.559 2.07732V1.57732C198.283 1.57732 198.059 1.80118 198.059 2.07732H198.559ZM198.559 35.3462V35.8462C198.836 35.8462 199.059 35.6224 199.059 35.3462H198.559ZM166.936 2.07732L167.318 1.75411C167.223 1.64198 167.083 1.57732 166.936 1.57732V2.07732ZM166.936 21.3383L167.319 21.0167C167.224 20.9036 167.084 20.8383 166.936 20.8383V21.3383ZM195.123 35.3462L194.741 35.6694C194.836 35.7816 194.976 35.8462 195.123 35.8462V35.3462ZM236.746 36.6475L236.3 36.8751L236.302 36.8785L236.746 36.6475ZM242.514 43.0755L242.241 43.4947L242.245 43.4967L242.514 43.0755ZM259.461 43.0755L259.73 43.4967L259.731 43.496L259.461 43.0755ZM265.229 18.5936L264.784 18.8212L264.785 18.8229L265.229 18.5936ZM259.461 12.1656L259.188 12.5847L259.19 12.5861L259.461 12.1656ZM242.514 12.1656L242.241 11.7465V11.7465L242.514 12.1656ZM236.746 18.5936L236.302 18.3626L236.301 18.3643L236.746 18.5936ZM226.323 16.9668L225.86 16.7775L225.859 16.7794L226.323 16.9668ZM231.972 8.31676L231.615 7.96661V7.96661L231.972 8.31676ZM240.445 2.56331L240.251 2.10259L240.25 2.10316L240.445 2.56331ZM270.003 8.31676L269.644 8.66494L269.646 8.66691L270.003 8.31676ZM275.612 16.9668L275.148 17.1529L275.148 17.1542L275.612 16.9668ZM275.652 38.3141L276.117 38.4982L276.117 38.4969L275.652 38.3141ZM270.122 46.964L270.481 47.3122L270.483 47.3103L270.122 46.964ZM261.689 52.7175L261.884 53.1777L261.689 52.7175ZM240.167 52.7175L239.971 53.1777L239.973 53.1782L240.167 52.7175ZM231.733 46.964L231.371 47.3083L231.374 47.3122L231.733 46.964ZM226.243 38.3141L225.777 38.4937L225.779 38.4982L226.243 38.3141ZM0.5 50.4381L0.909019 50.7257L34.9115 2.3649L34.5025 2.07732L34.0934 1.78974L0.0909807 50.1505L0.5 50.4381ZM34.5025 2.07732V2.57732H39.36V2.07732V1.57732H34.5025V2.07732ZM39.36 2.07732L38.951 2.3649L72.9534 50.7257L73.3624 50.4381L73.7715 50.1505L39.769 1.78974L39.36 2.07732ZM73.3624 50.4381H72.8624V52.8561H73.3624H73.8624V50.4381H73.3624ZM73.3624 52.8561V52.3561H61.2187V52.8561V53.3561H73.3624V52.8561ZM12.6437 52.8561V52.3561H0.5V52.8561V53.3561H12.6437V52.8561ZM0.5 52.8561H1V50.4381H0.5H0V52.8561H0.5ZM79.4682 2.07732H78.9682V27.4667H79.4682H79.9682V2.07732H79.4682ZM79.4682 27.4667V27.9667H90.6371V27.4667V26.9667H79.4682V27.4667ZM90.6371 27.4667H91.1371V21.3383H90.6371H90.1371V27.4667H90.6371ZM118.824 52.8561V53.3561H136.007V52.8561V52.3561H118.824V52.8561ZM136.007 52.8561H136.507V2.07732H136.007H135.507V52.8561H136.007ZM136.007 2.07732V1.57732H123.979V2.07732V2.57732H136.007V2.07732ZM123.979 2.07732H123.479V35.3462H123.979H124.479V2.07732H123.979ZM92.3554 2.07732V1.57732H79.4682V2.07732V2.57732H92.3554V2.07732ZM90.6371 21.3383V21.8383H92.3554V21.3383V20.8383H90.6371V21.3383ZM123.979 35.3462V34.8462H120.542V35.3462V35.8462H123.979V35.3462ZM120.542 35.3462L120.924 35.023L92.7369 1.75411L92.3554 2.07732L91.9739 2.40053L120.161 35.6694L120.542 35.3462ZM92.3554 21.3383L91.9725 21.6598L118.441 53.1777L118.824 52.8561L119.207 52.5346L92.7383 21.0167L92.3554 21.3383ZM287.481 2.07732V2.57732H345.474V2.07732V1.57732H287.481V2.07732ZM345.474 2.07732H344.974V13.4587H345.474H345.974V2.07732H345.474ZM345.474 13.4587V12.9587H287.481V13.4587V13.9587H345.474V13.4587ZM287.481 13.4587H287.981V2.07732H287.481H286.981V13.4587H287.481ZM310.249 19.0036V19.5036H323.136V19.0036V18.5036H310.249V19.0036ZM323.136 19.0036H322.636V52.488H323.136H323.636V19.0036H323.136ZM323.136 52.488V51.988H310.249V52.488V52.988H323.136V52.488ZM310.249 52.488H310.749V19.0036H310.249H309.749V52.488H310.249ZM61.2187 52.8561L61.63 52.5718L37.0974 17.0867L36.6862 17.3711L36.2749 17.6554L60.8074 53.1404L61.2187 52.8561ZM154.049 2.07732H153.549V27.4668H154.049H154.549V2.07732H154.049ZM154.049 27.4668V27.9668H165.218V27.4668V26.9668H154.049V27.4668ZM165.218 27.4668H165.718V21.3383H165.218H164.718V27.4668H165.218ZM193.405 52.8561V53.3561H210.588V52.8561V52.3561H193.405V52.8561ZM210.588 52.8561H211.088V2.07732H210.588H210.088V52.8561H210.588ZM210.588 2.07732V1.57732H198.559V2.07732V2.57732H210.588V2.07732ZM198.559 2.07732H198.059V35.3462H198.559H199.059V2.07732H198.559ZM166.936 2.07732V1.57732H154.049V2.07732V2.57732H166.936V2.07732ZM165.218 21.3383V21.8383H166.936V21.3383V20.8383H165.218V21.3383ZM198.559 35.3462V34.8462H195.123V35.3462V35.8462H198.559V35.3462ZM195.123 35.3462L195.504 35.023L167.318 1.75411L166.936 2.07732L166.555 2.40053L194.741 35.6694L195.123 35.3462ZM166.936 21.3383L166.553 21.6598L193.022 53.1777L193.405 52.8561L193.787 52.5346L167.319 21.0167L166.936 21.3383ZM234.677 27.6007H234.177C234.177 31.0048 234.882 34.0997 236.3 36.8751L236.746 36.6475L237.191 36.42C235.851 33.7991 235.177 30.8627 235.177 27.6007H234.677ZM236.746 36.6475L236.302 36.8785C237.746 39.6495 239.726 41.8584 242.241 43.4946L242.514 43.0755L242.787 42.6564C240.422 41.1183 238.557 39.0419 237.189 36.4165L236.746 36.6475ZM242.514 43.0755L242.245 43.4967C244.773 45.1143 247.693 45.9166 250.987 45.9166V45.4166V44.9166C247.863 44.9166 245.134 44.1581 242.783 42.6543L242.514 43.0755ZM250.987 45.4166V45.9166C254.281 45.9166 257.201 45.1143 259.73 43.4967L259.461 43.0755L259.191 42.6543C256.84 44.1581 254.112 44.9166 250.987 44.9166V45.4166ZM259.461 43.0755L259.731 43.496C262.275 41.8594 264.256 39.6491 265.674 36.8751L265.229 36.6475L264.784 36.42C263.444 39.0423 261.58 41.1173 259.19 42.655L259.461 43.0755ZM265.229 36.6475L265.674 36.8751C267.093 34.0997 267.798 31.0048 267.798 27.6007H267.298H266.798C266.798 30.8627 266.123 33.7991 264.784 36.42L265.229 36.6475ZM267.298 27.6007H267.798C267.798 24.1967 267.093 21.1143 265.673 18.3643L265.229 18.5936L264.785 18.8229C266.123 21.4163 266.798 24.3387 266.798 27.6007H267.298ZM265.229 18.5936L265.674 18.366C264.256 15.592 262.275 13.3817 259.731 11.7451L259.461 12.1656L259.19 12.5861C261.58 14.1238 263.444 16.1989 264.784 18.8212L265.229 18.5936ZM259.461 12.1656L259.733 11.7465C257.204 10.1012 254.283 9.28489 250.987 9.28489V9.78489V10.2849C254.11 10.2849 256.838 11.0557 259.188 12.5847L259.461 12.1656ZM250.987 9.78489V9.28489C247.692 9.28489 244.771 10.1012 242.241 11.7465L242.514 12.1656L242.787 12.5847C245.137 11.0557 247.865 10.2849 250.987 10.2849V9.78489ZM242.514 12.1656L242.241 11.7465C239.726 13.3828 237.746 15.5917 236.302 18.3626L236.746 18.5936L237.189 18.8246C238.557 16.1992 240.422 14.1228 242.787 12.5847L242.514 12.1656ZM236.746 18.5936L236.301 18.3643C234.882 21.1143 234.177 24.1967 234.177 27.6007H234.677H235.177C235.177 24.3387 235.851 21.4163 237.19 18.8229L236.746 18.5936ZM224.334 27.6007H224.834C224.834 23.8508 225.486 20.3703 226.786 17.1542L226.323 16.9668L225.859 16.7794C224.507 20.1235 223.834 23.7323 223.834 27.6007H224.334ZM226.323 16.9668L226.786 17.1561C228.115 13.9072 229.962 11.0791 232.329 8.66691L231.972 8.31676L231.615 7.96661C229.154 10.4747 227.236 13.4132 225.86 16.7775L226.323 16.9668ZM231.972 8.31676L232.329 8.66691C234.695 6.25469 237.465 4.37381 240.641 3.02345L240.445 2.56331L240.25 2.10316C236.955 3.50388 234.075 5.45865 231.615 7.96661L231.972 8.31676ZM240.445 2.56331L240.64 3.02402C243.836 1.67603 247.284 1 250.987 1V0.5V0C247.159 0 243.578 0.699499 240.251 2.10259L240.445 2.56331ZM250.987 0.5V1C254.745 1 258.205 1.67641 261.374 3.02345L261.569 2.56331L261.765 2.10316C258.462 0.699127 254.868 0 250.987 0V0.5ZM261.569 2.56331L261.374 3.02345C264.549 4.3736 267.305 6.25391 269.644 8.66494L270.003 8.31676L270.362 7.96859C267.927 5.45942 265.06 3.50409 261.765 2.10316L261.569 2.56331ZM270.003 8.31676L269.646 8.66691C272.012 11.0783 273.846 13.9054 275.148 17.1529L275.612 16.9668L276.076 16.7807C274.726 13.415 272.821 10.4754 270.36 7.96661L270.003 8.31676ZM275.612 16.9668L275.148 17.1542C276.449 20.3703 277.101 23.8508 277.101 27.6007H277.601H278.101C278.101 23.7323 277.427 20.1235 276.076 16.7794L275.612 16.9668ZM277.601 27.6007H277.101C277.101 31.3788 276.461 34.8873 275.186 38.1312L275.652 38.3141L276.117 38.4969C277.441 35.1276 278.101 31.4939 278.101 27.6007H277.601ZM275.652 38.3141L275.187 38.1299C273.911 41.3512 272.102 44.1791 269.761 46.6178L270.122 46.964L270.483 47.3103C272.916 44.7759 274.794 41.8372 276.117 38.4982L275.652 38.3141ZM270.122 46.964L269.763 46.6159C267.424 49.0269 264.669 50.9072 261.493 52.2574L261.689 52.7175L261.884 53.1777C265.179 51.7767 268.047 49.8214 270.481 47.3122L270.122 46.964ZM261.689 52.7175L261.493 52.2574C258.326 53.6039 254.826 54.2808 250.987 54.2808V54.7808V55.2808C254.946 55.2808 258.58 54.5822 261.884 53.1777L261.689 52.7175ZM250.987 54.7808V54.2808C247.095 54.2808 243.555 53.6035 240.361 52.2568L240.167 52.7175L239.973 53.1782C243.303 54.5825 246.977 55.2808 250.987 55.2808V54.7808ZM240.167 52.7175L240.362 52.2574C237.187 50.9072 234.431 49.0269 232.092 46.6159L231.733 46.964L231.374 47.3122C233.809 49.8214 236.676 51.7767 239.971 53.1777L240.167 52.7175ZM231.733 46.964L232.096 46.6198C229.781 44.181 227.985 41.3524 226.708 38.1299L226.243 38.3141L225.779 38.4982C227.101 41.836 228.965 44.774 231.371 47.3083L231.733 46.964ZM226.243 38.3141L226.71 38.1344C225.461 34.8897 224.834 31.38 224.834 27.6007H224.334H223.834C223.834 31.4927 224.48 35.1252 225.777 38.4937L226.243 38.3141ZM36.6862 17.3711L36.2722 17.0906L12.2298 52.5756L12.6437 52.8561L13.0577 53.1366L37.1001 17.6515L36.6862 17.3711Z" fill="#F4F5F7"/>
<g filter="url(#filter0_d_3019_53)">
<path d="M349.168 50.3278L383.17 1.96708H388.028L422.03 50.3278V52.7459H409.886L385.11 17.3711L361.311 52.7459H349.168V50.3278Z" fill="#8EC9FC"/>
<path d="M434.141 52.488V2.07729H446.06V52.488H434.141Z" fill="#8EC9FC"/>
<path d="M459.424 12.5984L459.418 20.3186L460.633 26.3637L465.89 31.9347H514.065L516.494 35.5617V40.3978L514.065 44.0249H459.418V49.5959L463.061 52.0139H521.351L523.78 48.3868L526.209 41.6068V32.4088L521.351 25.1546H471.562L469.133 21.5276V13.0645L471.562 10.6464H524.994V5.33626L521.351 1.7092L465.89 2.07465L460.633 6.54528L459.424 12.5984Z" fill="#8EC9FC"/>
<path d="M538.353 1.7092H601.5V11.3814H538.353V1.7092Z" fill="#8EC9FC"/>
<path d="M538.353 22.2625H601.5V31.9347H538.353V22.2625Z" fill="#8EC9FC"/>
<path d="M538.353 42.8158H601.5V52.488H538.353V42.8158Z" fill="#8EC9FC"/>
<path d="M349.168 50.3278L383.17 1.96708H388.028L422.03 50.3278V52.7459H409.886L385.11 17.3711L361.311 52.7459H349.168V50.3278Z" stroke="#8EC9FC" stroke-linejoin="round"/>
<path d="M434.141 52.488V2.07729H446.06V52.488H434.141Z" stroke="#8EC9FC" stroke-linejoin="round"/>
<path d="M459.424 12.5984L459.418 20.3186L460.633 26.3637L465.89 31.9347H514.065L516.494 35.5617V40.3978L514.065 44.0249H459.418V49.5959L463.061 52.0139H521.351L523.78 48.3868L526.209 41.6068V32.4088L521.351 25.1546H471.562L469.133 21.5276V13.0645L471.562 10.6464H524.994V5.33626L521.351 1.7092L465.89 2.07465L460.633 6.54528L459.424 12.5984Z" stroke="#8EC9FC" stroke-linejoin="round"/>
<path d="M538.353 1.7092H601.5V11.3814H538.353V1.7092Z" stroke="#8EC9FC" stroke-linejoin="round"/>
<path d="M538.353 22.2625H601.5V31.9347H538.353V22.2625Z" stroke="#8EC9FC" stroke-linejoin="round"/>
<path d="M538.353 42.8158H601.5V52.488H538.353V42.8158Z" stroke="#8EC9FC" stroke-linejoin="round"/>
</g>
<defs>
<filter id="filter0_d_3019_53" x="344.668" y="1.2092" width="261.332" height="60.0367" filterUnits="userSpaceOnUse" color-interpolation-filters="sRGB">
<feFlood flood-opacity="0" result="BackgroundImageFix"/>
<feColorMatrix in="SourceAlpha" type="matrix" values="0 0 0 0 0 0 0 0 0 0 0 0 0 0 0 0 0 0 127 0" result="hardAlpha"/>
<feOffset dy="4"/>
<feGaussianBlur stdDeviation="2"/>
<feComposite in2="hardAlpha" operator="out"/>
<feColorMatrix type="matrix" values="0 0 0 0 0 0 0 0 0 0 0 0 0 0 0 0 0 0 0.25 0"/>
<feBlend mode="normal" in2="BackgroundImageFix" result="effect1_dropShadow_3019_53"/>
<feBlend mode="normal" in="SourceGraphic" in2="effect1_dropShadow_3019_53" result="shape"/>
</filter>
</defs>
</svg>
