<svg width="38" height="38" viewBox="0 0 38 38" fill="none" xmlns="http://www.w3.org/2000/svg">
<path d="M17.1111 2H20.8889C21.9321 2 22.7778 2.84569 22.7778 3.88889V4.96327C22.7778 5.77134 23.3201 6.47336 24.0664 6.7832C24.8131 7.09316 25.6823 6.97503 26.2539 6.40343L27.0138 5.6435C27.7514 4.90583 28.9475 4.90583 29.6851 5.6435L32.3563 8.31478C33.0941 9.05245 33.0939 10.2484 32.3563 10.9861L31.5966 11.7459C31.0249 12.3175 30.9068 13.1869 31.2168 13.9335C31.5265 14.6799 32.2286 15.2222 33.0369 15.2222H34.1111C35.1543 15.2222 36 16.0679 36 17.1111V20.8889C36 21.9321 35.1543 22.7778 34.1111 22.7778H33.0367C32.2286 22.7778 31.5267 23.3201 31.2168 24.0664C30.9068 24.8131 31.0249 25.6823 31.5966 26.2539L32.3563 27.0138C33.0941 27.7514 33.0941 28.9475 32.3563 29.6851L29.6851 32.3563C28.9475 33.0941 27.7514 33.0941 27.0138 32.3563L26.2539 31.5966C25.6823 31.0249 24.8131 30.9068 24.0664 31.2168C23.3201 31.5267 22.7778 32.2286 22.7778 33.0367V34.1111C22.7778 35.1543 21.9321 36 20.8889 36H17.1111C16.0679 36 15.2222 35.1543 15.2222 34.1111V33.0369C15.2222 32.2286 14.6799 31.5265 13.9335 31.2168C13.1869 30.9068 12.3175 31.0249 11.7459 31.5966L10.986 32.3563C10.2484 33.0941 9.05241 33.0941 8.31476 32.3563L5.64346 29.6851C4.90581 28.9475 4.90581 27.7514 5.64346 27.0138L6.40343 26.2539C6.97503 25.6823 7.09316 24.8131 6.7832 24.0664C6.47336 23.3201 5.77134 22.7778 4.96327 22.7778H3.88889C2.84569 22.7778 2 21.9321 2 20.8889V17.1111C2 16.0679 2.84569 15.2222 3.88889 15.2222H4.96323C5.77132 15.2222 6.47336 14.6799 6.78321 13.9335C7.0932 13.1869 6.97507 12.3177 6.40343 11.746L5.6435 10.9861C4.90583 10.2484 4.90583 9.05245 5.6435 8.3148L8.31478 5.6435C9.05245 4.90585 10.2484 4.90585 10.9861 5.6435L11.746 6.40343C12.3176 6.97507 13.1869 7.0932 13.9335 6.78321C14.6799 6.47336 15.2222 5.77132 15.2222 4.96321V3.88889C15.2222 2.84569 16.0679 2 17.1111 2Z" stroke="#7C8292" stroke-width="4"/>
<path d="M23 19C23 21.2092 21.2092 23 19 23C16.7908 23 15 21.2092 15 19C15 16.7908 16.7908 15 19 15C21.2092 15 23 16.7908 23 19Z" stroke="#7C8292" stroke-width="4"/>
</svg>
